<?xml version="1.0" encoding="UTF-8" standalone="no"?>
<!-- Created with Inkscape (http://www.inkscape.org/) -->

<svg
   xmlns:dc="http://purl.org/dc/elements/1.1/"
   xmlns:cc="http://creativecommons.org/ns#"
   xmlns:rdf="http://www.w3.org/1999/02/22-rdf-syntax-ns#"
   xmlns:svg="http://www.w3.org/2000/svg"
   xmlns="http://www.w3.org/2000/svg"
   xmlns:sodipodi="http://sodipodi.sourceforge.net/DTD/sodipodi-0.dtd"
   xmlns:inkscape="http://www.inkscape.org/namespaces/inkscape"
   width="213.71295"
   height="77.016365"
   viewBox="0 0 213.71295 77.016365"
   id="svg2"
   version="1.1"
   inkscape:version="0.48.5 r10040"
   sodipodi:docname="header.svg">
  <defs
     id="defs4" />
  <sodipodi:namedview
     id="base"
     pagecolor="#ffffff"
     bordercolor="#666666"
     borderopacity="1.0"
     inkscape:pageopacity="0.0"
     inkscape:pageshadow="2"
     inkscape:zoom="6.6104187"
     inkscape:cx="99.126154"
     inkscape:cy="33.346007"
     inkscape:document-units="px"
     inkscape:current-layer="layer1"
     showgrid="false"
     inkscape:window-width="1824"
     inkscape:window-height="919"
     inkscape:window-x="0"
     inkscape:window-y="36"
     inkscape:window-maximized="1"
     fit-margin-top="0"
     fit-margin-left="0"
     fit-margin-right="0"
     fit-margin-bottom="0" />
  <metadata
     id="metadata7">
    <rdf:RDF>
      <cc:Work
         rdf:about="">
        <dc:format>image/svg+xml</dc:format>
        <dc:type
           rdf:resource="http://purl.org/dc/dcmitype/StillImage" />
        <dc:title></dc:title>
        <cc:license
           rdf:resource="http://creativecommons.org/licenses/by/3.0/" />
      </cc:Work>
      <cc:License
         rdf:about="http://creativecommons.org/licenses/by/3.0/">
        <cc:permits
           rdf:resource="http://creativecommons.org/ns#Reproduction" />
        <cc:permits
           rdf:resource="http://creativecommons.org/ns#Distribution" />
        <cc:requires
           rdf:resource="http://creativecommons.org/ns#Notice" />
        <cc:requires
           rdf:resource="http://creativecommons.org/ns#Attribution" />
        <cc:permits
           rdf:resource="http://creativecommons.org/ns#DerivativeWorks" />
      </cc:License>
    </rdf:RDF>
  </metadata>
  <g
     inkscape:label="Layer 1"
     inkscape:groupmode="layer"
     id="layer1"
     transform="translate(-288.92681,-125.22265)">
    <g
       transform="matrix(1.4631915,0,0,1.4631915,-209.82571,13.906174)"
       id="g4069">
      <path
         transform="translate(288.92681,125.22265)"
         inkscape:connector-curvature="0"
         id="path4067"
         d="m 103.20072,-35.923241 c 0,0 -18.378207,0.471237 -20.106073,0.471237 -1.727866,0 -22.619337,-1.727866 -22.619337,-1.727866 l -5.811913,9.267645 2.51326,9.895959 0.157079,13.5087711 24.818439,0.3141574 31.415745,-1.4137085 27.64586,-0.7853937 27.80293,1.8849448 26.38923,-1.4137086 c 0,0 -4.08405,-17.9069755 -3.92697,-17.2786605 0.15708,0.628315 2.51326,-16.493266 1.88494,-16.964502 -0.62831,-0.471236 -18.22113,-2.356181 -18.22113,-2.356181 0,0 0.62832,8.168094 -0.78539,7.853936 -1.41371,-0.314157 -13.35169,-1.099551 -13.35169,-1.099551 l -0.94248,-5.968992 -12.40922,-1.884944 c 0,0 1.88495,9.738881 0.31416,9.110566 -1.57079,-0.628315 -30.31619,0.314157 -30.31619,0.314157 l -0.7854,-6.12607 -13.98,0.157079 z"
         style="fill:#000000;stroke:#000000;stroke-width:1px;stroke-linecap:butt;stroke-linejoin:miter;stroke-opacity:1" />
      <path
         sodipodi:nodetypes="cccccccccccccccccc"
         inkscape:connector-curvature="0"
         id="path3346"
         d="m 398.99455,88.849481 0,5.30025 -6.47808,-0.29446 -0.88337,4.71133 6.47808,-0.29446 -0.58892,10.306049 1.76675,7.36145 4.79079,1.47229 5.30025,-0.88337 0,-4.12242 -4.20187,0.88338 -4.41688,-4.41688 0.29446,-9.422659 6.47809,-0.29446 0.29446,-5.59471 -4.71134,0 -0.29446,-5.59471 z"
         style="fill:#ffffff;fill-rule:evenodd;stroke:none" />
      <path
         inkscape:connector-curvature="0"
         id="path3358"
         d="m 350.4291,90.301427 -0.29487,4.40315 7.07669,-0.77703 3.83321,3.62612 -0.58972,3.367113 -8.551,0.25901 -2.06404,5.95721 1.76918,7.77026 9.43558,0.77703 5.30752,-4.14415 1.47431,4.40316 4.42293,0 -4.12807,-7.77027 -3.53835,-8.547293 -2.94861,-7.51125 -5.30752,-1.55406 z"
         style="fill:#ffffff;fill-rule:evenodd;stroke:none" />
      <path
         inkscape:connector-curvature="0"
         id="path3342-8"
         d="m 375.65478,93.694189 0,23.041941 3.91243,-0.29541 -1.30414,-16.24752 2.60829,-3.544911 4.99922,0.29541 3.47772,2.36327 1.08679,-3.84032 -5.21658,-2.65868 -4.99923,0.59082 -2.39093,2.06786 0.21736,-4.43114 z"
         style="fill:#ffffff;fill-rule:evenodd;stroke:none" />
      <path
         inkscape:connector-curvature="0"
         id="path3383-4"
         d="m 359.59077,104.09741 -4.75679,-0.51802 -1.25179,2.33108 -0.50072,4.92117 3.75536,2.33108 4.50644,-2.07207 2.25322,-3.10811 -0.50072,-4.14414 z"
         style="fill:#1a1a1a;fill-rule:evenodd;stroke:none" />
      <path
         transform="translate(288.92681,125.22265)"
         inkscape:connector-curvature="0"
         id="path3291"
         d="m 141.84209,-18.173344 4.86944,1.570787 -5.02652,6.597307 -11.62382,1.0995507 -6.28315,-8.7964087 0.15708,-9.89596 10.36719,-5.183598 6.12607,3.298653 -4.3982,4.084047 -4.55528,-3.612811 -4.55529,7.382701 1.72787,6.597306 7.53978,3.141575 z"
         style="fill:#ffffff;stroke:none" />
      <path
         style="fill:#ffffff;fill-rule:evenodd;stroke:none"
         d="m 440.62041,88.221166 0,5.30025 -6.47808,-0.29446 -0.88337,4.71133 6.47808,-0.29446 -0.58892,10.306054 1.76675,7.36145 4.79079,1.47229 5.30025,-0.88337 0,-4.12242 -4.20187,0.88338 -4.41688,-4.41688 0.29446,-9.422664 6.47809,-0.29446 0.29446,-5.59471 -4.71134,0 -0.29446,-5.59471 z"
         id="path3293"
         inkscape:connector-curvature="0"
         sodipodi:nodetypes="cccccccccccccccccc" />
      <path
         style="fill:#ffffff;fill-rule:evenodd;stroke:none"
         d="m 454.5083,93.53711 0,23.04194 3.91243,-0.29541 -1.30414,-16.24752 2.60829,-3.54491 4.99922,0.29541 3.47772,2.36327 1.08679,-3.84032 -5.21658,-2.65868 -4.99923,0.59082 -2.39093,2.06786 0.21736,-4.43114 z"
         id="path3295"
         inkscape:connector-curvature="0" />
      <path
         style="fill:#ffffff;fill-rule:evenodd;stroke:none"
         d="m 467.86509,85.799201 -1.17783,3.5335 2.35567,0 3.5335,-0.29446 -0.29446,12.661709 -0.29446,11.77833 2.65013,4.71133 6.47808,0 0,-3.5335 -5.00579,0 -0.88338,-4.12242 0.29446,-16.195199 0.58892,-8.83375 z"
         id="path3297"
         inkscape:connector-curvature="0"
         sodipodi:nodetypes="cccccccccccccc" />
    </g>
  </g>
</svg>
